<svg xmlns="http://www.w3.org/2000/svg" id="IoTChip" viewBox="0 0 64 64">
  <path d="m61,24c.55,0,1-.45,1-1s-.45-1-1-1h-7v-4h7c.55,0,1-.45,1-1s-.45-1-1-1h-7v-1c0-2.76-2.24-5-5-5h-1V3c0-.55-.45-1-1-1s-1,.45-1,1v7h-4V3c0-.55-.45-1-1-1s-1,.45-1,1v7h-4V3c0-.55-.45-1-1-1s-1,.45-1,1v7h-4V3c0-.55-.45-1-1-1s-1,.45-1,1v7h-4V3c0-.55-.45-1-1-1s-1,.45-1,1v7h-4V3c0-.55-.45-1-1-1s-1,.45-1,1v7h-1c-2.76,0-5,2.24-5,5v1H3c-.55,0-1,.45-1,1s.45,1,1,1h7v4H3c-.55,0-1,.45-1,1s.45,1,1,1h7v4H3c-.55,0-1,.45-1,1s.45,1,1,1h7v4H3c-.55,0-1,.45-1,1s.45,1,1,1h7v4H3c-.55,0-1,.45-1,1s.45,1,1,1h7v4H3c-.55,0-1,.45-1,1s.45,1,1,1h7v1c0,2.76,2.24,5,5,5h1v7c0,.55.45,1,1,1s1-.45,1-1v-7h4v7c0,.55.45,1,1,1s1-.45,1-1v-7h4v7c0,.55.45,1,1,1s1-.45,1-1v-7h4v7c0,.55.45,1,1,1s1-.45,1-1v-7h4v7c0,.55.45,1,1,1s1-.45,1-1v-7h4v7c0,.55.45,1,1,1s1-.45,1-1v-7h1c2.76,0,5-2.24,5-5v-1h7c.55,0,1-.45,1-1s-.45-1-1-1h-7v-4h7c.55,0,1-.45,1-1s-.45-1-1-1h-7v-4h7c.55,0,1-.45,1-1s-.45-1-1-1h-7v-4h7c.55,0,1-.45,1-1s-.45-1-1-1h-7v-4h7Zm-9,25c0,1.65-1.35,3-3,3H15c-1.65,0-3-1.35-3-3V15c0-1.65,1.35-3,3-3h34c1.65,0,3,1.35,3,3v34Z" fill="#d85b53" class="color000000 svgShape"></path>
  <path d="m32,34.37c-1.61,0-3.15.76-4.12,2.03-.33.44-.25,1.07.19,1.4.44.34,1.07.25,1.4-.19.6-.79,1.52-1.24,2.53-1.24s1.93.45,2.53,1.24c.2.26.49.39.8.39.21,0,.42-.07.61-.21.44-.33.52-.96.19-1.4-.97-1.27-2.51-2.03-4.12-2.03Z" fill="#d85b53" class="color000000 svgShape"></path>
  <path d="m32,30.18c-2.94,0-5.65,1.33-7.45,3.64-.34.44-.26,1.06.18,1.4.44.34,1.07.26,1.4-.18,1.41-1.82,3.55-2.87,5.87-2.87s4.45,1.04,5.87,2.87c.2.25.49.39.79.39.21,0,.43-.07.61-.21.44-.34.52-.97.18-1.4-1.8-2.31-4.51-3.64-7.45-3.64Z" fill="#d85b53" class="color000000 svgShape"></path>
  <path d="m21.21,31.27c-.34.44-.26,1.06.17,1.4.43.34,1.06.26,1.4-.17,2.23-2.86,5.58-4.5,9.21-4.5s6.98,1.64,9.21,4.5c.2.25.49.39.79.39.21,0,.43-.07.61-.21.44-.34.51-.97.17-1.4-2.61-3.35-6.54-5.27-10.79-5.27s-8.18,1.92-10.79,5.27Z" fill="#d85b53" class="color000000 svgShape"></path>
  <path d="m32,17c-8.27,0-15,6.73-15,15s6.73,15,15,15,15-6.73,15-15-6.73-15-15-15Zm0,28c-7.17,0-13-5.83-13-13s5.83-13,13-13,13,5.83,13,13-5.83,13-13,13Z" fill="#d85b53" class="color000000 svgShape"></path>
</svg>
